# xmcd
#
# Track frame offsets:
#	150
#	16997
#	28547
#	46342
#	66842
#	84122
#	100935
#	119295
#	136322
#	153160
#	165947
#	175710
#	193785
#	216360
#	235785
#	249160
#	266035
#	278747
#
# Disc length: 3905 seconds
#
# Revision: 0
# Processed by: cddbd v1.4PL0 Copyright (c) Steve Scherf et al.
# Submitted via: audiograbber 1.80.04
#
DISCID=e40f3f12
DTITLE=Various Artist - Inside Country  A Special Collection of Country and Roots Music
DYEAR=1900
DGENRE=
TTITLE0=Mary Chapin Carpenter - House Of Cards
TTITLE1=Steve Earle - Guitar Town
TTITLE2=Kim Richey - Those Words We Said
TTITLE3=Joe Ely - The Road Goes On Forever
TTITLE4=The Delevantes - Driving At Night
TTITLE5=Greg Trooper - Long Long Days
TTITLE6=Patty Loveless - You Don't Even Know Who I Am
TTITLE7=George Ducas - Kisses Don't Lie
TTITLE8=Rachel Matkin - Living Beyond Our Dreams
TTITLE9=Junior Brown - Party Lights
TTITLE10=Prairie Oyster - One Precious Love
TTITLE11=Kieran Kane - Cool  Me Down
TTITLE12=John Prine - Ain't Hurtin' Nobody
TTITLE13=Rosanne Cash - The Wheel
TTITLE14=James House - Take Me Away
TTITLE15=Kathy Mattea - Where've You Been
TTITLE16=Billy Joe Shaver With Brother Phelps - Live Forever
TTITLE17=Bum Steers, The - Nat King Cole, Porter Wagnoner Sort Of Thing
EXTD=
EXTT0=
EXTT1=
EXTT2=
EXTT3=
EXTT4=
EXTT5=
EXTT6=
EXTT7=
EXTT8=
EXTT9=
EXTT10=
EXTT11=
EXTT12=
EXTT13=
EXTT14=
EXTT15=
EXTT16=
EXTT17=
PLAYORDER=
